#tb 0: 1/10
0,          0,          0,        1,   192000, 0x236a1b54
0,          1,          1,        1,   192000, 0xfb438b68
0,          2,          2,        1,   192000, 0xde504563
0,          3,          3,        1,   192000, 0xfaf88e05
0,          4,          4,        1,   192000, 0xe15de5af
0,          5,          5,        1,   192000, 0x641fcca4
0,          6,          6,        1,   192000, 0x74899cb6
0,          7,          7,        1,   192000, 0x93fdb1b4
0,          8,          8,        1,   192000, 0x58d83456
0,          9,          9,        1,   192000, 0x7d3012ac
